<svg width="203" height="55" viewBox="0 0 203 55" fill="none" xmlns="http://www.w3.org/2000/svg">
<g clip-path="url(#clip0_6_3)">
<path d="M21.9601 14.6567C21.9601 19.4646 23.84 23.4407 26.2689 24.0729V31.2432C25.9362 29.33 24.9546 27.1174 23.3409 25.0544C20.2132 20.9952 16.0042 18.9822 13.7583 20.4462L10.3479 16.6531C10.1482 16.4368 9.81549 16.4035 9.58258 16.6198C9.3663 16.8194 9.33303 17.1521 9.5493 17.3851L12.993 21.1948C11.5789 23.2411 12.5439 27.4335 15.4053 31.1766C18.6161 35.3524 22.9915 37.3654 25.1875 35.6685C25.7365 35.2526 26.1025 34.637 26.2689 33.8717V45.9997C25.8696 44.1863 24.9047 42.1567 23.4241 40.2269C20.2632 36.1177 15.9876 34.1047 13.7583 35.6518L10.3479 31.8587C10.1482 31.6425 9.81549 31.6258 9.58258 31.8255C9.3663 32.0251 9.33303 32.3745 9.5493 32.5907L13.0263 36.4171C11.6788 38.48 12.6437 42.6391 15.4719 46.3324C18.6827 50.4915 23.0581 52.5045 25.2541 50.8243C25.7365 50.4416 26.0859 49.9093 26.2689 49.2771V54.9667C11.6455 54.3512 0 42.2731 0 27.5C0 12.7269 11.712 0.615547 26.3521 0.0332728V5.22384C23.8733 5.80611 21.9601 9.79885 21.9601 14.6567Z" fill="#432C1D"/>
<path d="M55 27.5166C55 42.556 42.922 54.8004 27.8993 55V49.1606C28.0989 49.8427 28.4316 50.425 28.964 50.8243C31.16 52.5045 35.5354 50.4915 38.7462 46.3324C41.4912 42.7556 42.4894 38.7462 41.3415 36.6168L44.3693 33.2562C44.569 33.0399 44.569 32.7072 44.3361 32.4909C44.1031 32.2913 43.7704 32.3079 43.5708 32.5242L40.6428 35.7683C40.6428 35.7683 40.6095 35.735 40.5929 35.7184C38.3802 34.0215 34.0215 36.0345 30.8106 40.2102C29.2635 42.2066 28.2819 44.3527 27.9159 46.216V33.9882C28.1155 34.6869 28.4483 35.2526 28.9806 35.6518C31.1766 37.3488 35.552 35.3358 38.7629 31.16C41.5245 27.5832 42.506 23.5572 41.3415 21.4277L44.386 18.0505C44.5856 17.8342 44.5856 17.4849 44.3527 17.2852C44.1198 17.0856 43.7871 17.0856 43.5874 17.3185L40.6428 20.5792C40.6428 20.5792 40.6095 20.5793 40.6095 20.546C38.3969 18.8491 34.0381 20.8621 30.8273 25.0378C29.2801 27.0342 28.2985 29.1803 27.9325 31.0436V23.9897C30.2616 23.1579 32.0085 19.2982 32.0085 14.64C32.0085 9.6824 30.0287 5.62311 27.4834 5.17393V0H27.5333C42.7223 0 55.0333 12.311 55.0333 27.5166H55Z" fill="#432C1D"/>
<path d="M97.6225 15.6881V16.337H95.7592V38.6963H97.6225V39.3451H87.3246V38.6963H89.1878V17.5847H89.0547L83.9806 39.3451H79.755L73.8158 17.4849H73.6827V38.6963H75.546V39.3451H70.9543V38.6963H72.8176V16.337H70.9543V15.6881H80.0711L84.5629 33.0898L88.6222 15.6881H97.6391H97.6225Z" fill="#432C1D"/>
<path d="M110.616 31.4096H103.928L101.332 38.713H103.861V39.3618H98.6872V38.713H100.268L108.885 15.5052H111.664L120.181 38.713H121.729V39.3618H110.682V38.713H113.078L110.616 31.4096ZM104.227 30.6609H110.349L107.405 21.8104L104.227 30.6609Z" fill="#432C1D"/>
<path d="M136.003 36.3339V29.7792H133.84V29.0306H143.572V29.7792H142.258V39.3119H141.759C141.36 38.7296 140.977 38.4634 140.029 38.4634C138.681 38.4634 136.152 39.6779 133.208 39.6779C126.037 39.6779 121.645 35.9014 121.645 27.8161C121.645 19.7308 126.37 15.3221 133.308 15.3221C136.818 15.3221 138.648 16.3702 139.829 16.3702C140.378 16.3702 140.511 16.1373 140.744 15.6881H141.11L141.376 23.0248H140.761C138.864 19.2483 136.668 16.0042 133.69 16.0042C130.346 16.0042 128.516 19.1152 128.516 26.1025V28.7644C128.516 35.6186 130.313 38.9958 133.424 38.9958C135.786 38.9958 135.986 38.0475 135.986 36.3339H136.003Z" fill="#432C1D"/>
<path d="M155.833 15.6881V16.337H153.97V38.6963H155.833V39.3451H145.535V38.6963H147.399V16.337H145.535V15.6881H155.833Z" fill="#432C1D"/>
<path d="M164.967 26.1025V28.7644C164.967 34.9864 166.763 38.9958 170.44 38.9958C173.185 38.9958 175.381 36.1509 177.261 31.7589H177.877L177.644 39.2952H177.278C177.045 38.8627 176.912 38.6131 176.363 38.6131C175.215 38.6131 173.351 39.6612 169.642 39.6612C162.471 39.6612 158.079 35.8848 158.079 27.7995C158.079 19.7142 162.804 15.3055 169.741 15.3055C173.252 15.3055 174.882 16.3536 176.063 16.3536C176.596 16.3536 176.745 16.1207 176.978 15.6715H177.344L177.61 23.0082H176.995C175.132 18.8491 173.102 15.9876 170.207 15.9876C166.797 15.9876 164.967 19.0986 164.967 26.0859V26.1025Z" fill="#432C1D"/>
<path d="M191.469 31.4096H184.781L182.185 38.713H184.714V39.3618H179.54V38.713H181.121L189.738 15.5052H192.517L201.034 38.713H202.582V39.3618H191.535V38.713H193.931L191.469 31.4096ZM185.08 30.6609H191.202L188.258 21.8104L185.08 30.6609Z" fill="#432C1D"/>
</g>
<defs>
<clipPath id="clip0_6_3">
<rect width="202.582" height="55" fill="white"/>
</clipPath>
</defs>
</svg>
