<svg width="56" height="55" viewBox="0 0 56 55" fill="none" xmlns="http://www.w3.org/2000/svg">
<path d="M21.9601 14.6567C21.9601 19.4646 23.84 23.4407 26.2689 24.0729V31.2432C25.9362 29.33 24.9546 27.1174 23.3409 25.0544C20.2132 20.9952 16.0042 18.9822 13.7583 20.4462L10.3479 16.6531C10.1482 16.4368 9.81549 16.4035 9.58258 16.6198C9.3663 16.8194 9.33303 17.1521 9.5493 17.3851L12.993 21.1948C11.5789 23.2411 12.5439 27.4335 15.4053 31.1766C18.6161 35.3524 22.9915 37.3654 25.1875 35.6685C25.7365 35.2526 26.1025 34.637 26.2689 33.8717V45.9997C25.8696 44.1863 24.9047 42.1567 23.4241 40.2269C20.2632 36.1177 15.9876 34.1047 13.7583 35.6518L10.3479 31.8587C10.1482 31.6425 9.81549 31.6258 9.58258 31.8255C9.3663 32.0251 9.33303 32.3745 9.5493 32.5907L13.0263 36.4171C11.6788 38.48 12.6437 42.6391 15.4719 46.3324C18.6827 50.4915 23.0581 52.5045 25.2541 50.8243C25.7365 50.4416 26.0859 49.9093 26.2689 49.2771V54.9667C11.6455 54.3512 0 42.2731 0 27.5C0 12.7269 11.712 0.615547 26.3521 0.0332728V5.22384C23.8733 5.80611 21.9601 9.79885 21.9601 14.6567Z" fill="#432C1D"/>
<path d="M55 27.5166C55 42.556 42.922 54.8004 27.8993 55V49.1606C28.0989 49.8427 28.4316 50.425 28.964 50.8243C31.16 52.5045 35.5354 50.4915 38.7462 46.3324C41.4912 42.7556 42.4894 38.7462 41.3415 36.6168L44.3693 33.2562C44.569 33.0399 44.569 32.7072 44.3361 32.4909C44.1031 32.2913 43.7704 32.3079 43.5708 32.5242L40.6428 35.7683C40.6428 35.7683 40.6095 35.735 40.5929 35.7184C38.3802 34.0215 34.0215 36.0345 30.8106 40.2102C29.2635 42.2066 28.2819 44.3527 27.9159 46.216V33.9882C28.1155 34.6869 28.4483 35.2526 28.9806 35.6518C31.1766 37.3488 35.552 35.3358 38.7629 31.16C41.5245 27.5832 42.506 23.5572 41.3415 21.4277L44.386 18.0505C44.5856 17.8342 44.5856 17.4849 44.3527 17.2852C44.1198 17.0856 43.7871 17.0856 43.5874 17.3185L40.6428 20.5792C40.6428 20.5792 40.6095 20.5793 40.6095 20.546C38.3969 18.8491 34.0381 20.8621 30.8273 25.0378C29.2801 27.0342 28.2985 29.1803 27.9325 31.0436V23.9897C30.2616 23.1579 32.0085 19.2982 32.0085 14.64C32.0085 9.6824 30.0287 5.62311 27.4834 5.17393V0H27.5333C42.7223 0 55.0333 12.311 55.0333 27.5166H55Z" fill="#432C1D"/>
</svg>
